<?xml version="1.0" standalone="no"?>
<!DOCTYPE svg PUBLIC "-//W3C//DTD SVG 20010904//EN"
 "http://www.w3.org/TR/2001/REC-SVG-20010904/DTD/svg10.dtd">
<svg version="1.0" xmlns="http://www.w3.org/2000/svg"
 width="1.25REM" height="1.25REM" viewBox="0 0 512.000000 512.000000"
 preserveAspectRatio="xMidYMid meet">

<g transform="translate(0.000000,512.000000) scale(0.100000,-0.100000)"
fill="#000000" stroke="none">
<path d="M1855 4946 c-41 -18 -83 -69 -90 -109 -3 -18 -4 -910 -3 -1984 l3
-1952 21 -27 c11 -15 33 -37 48 -48 27 -21 28 -21 1526 -21 1498 0 1499 0
1526 21 15 11 37 33 48 48 21 27 21 30 24 1569 2 848 0 1562 -3 1587 -6 44
-20 58 -438 478 -337 337 -440 435 -467 442 -22 6 -438 10 -1100 10 -863 -1
-1071 -3 -1095 -14z m1987 -655 c3 -335 4 -351 24 -377 11 -15 33 -37 48 -48
26 -20 42 -21 377 -24 l349 -3 0 -1359 0 -1360 -1280 0 -1280 0 0 1760 0 1760
880 0 879 0 3 -349z m448 -6 l125 -125 -128 0 -127 0 0 125 c0 69 1 125 3 125
1 0 58 -56 127 -125z"/>
<path d="M2815 4306 c-67 -29 -105 -106 -91 -181 9 -47 59 -102 104 -115 24
-7 160 -10 394 -8 342 3 358 4 384 24 53 39 69 71 69 134 0 63 -16 95 -69 134
-26 20 -41 21 -394 23 -290 2 -373 0 -397 -11z"/>
<path d="M2495 3666 c-67 -29 -105 -106 -91 -181 9 -47 59 -102 104 -115 25
-8 305 -10 874 -8 827 3 837 3 864 24 53 39 69 71 69 134 0 63 -16 95 -69 134
-27 21 -36 21 -874 23 -689 2 -853 0 -877 -11z"/>
<path d="M2495 3026 c-67 -29 -105 -106 -91 -181 9 -47 59 -102 104 -115 25
-8 209 -10 554 -8 504 3 517 4 544 24 53 39 69 71 69 134 0 63 -16 95 -69 134
-27 21 -40 21 -554 23 -423 2 -533 0 -557 -11z"/>
<path d="M2495 2386 c-67 -29 -105 -106 -91 -181 9 -47 59 -102 104 -115 25
-8 305 -10 874 -8 827 3 837 3 864 24 53 39 69 71 69 134 0 63 -16 95 -69 134
-27 21 -36 21 -874 23 -689 2 -853 0 -877 -11z"/>
<path d="M2495 1746 c-67 -29 -105 -106 -91 -181 9 -47 59 -102 104 -115 25
-8 281 -10 794 -8 746 3 757 3 784 24 53 39 69 71 69 134 0 63 -16 95 -69 134
-27 21 -37 21 -794 23 -622 2 -773 0 -797 -11z"/>
<path d="M255 4306 c-41 -18 -83 -69 -90 -109 -3 -18 -4 -910 -3 -1984 l3
-1952 21 -27 c11 -15 33 -37 48 -48 27 -21 28 -21 1526 -21 1498 0 1499 0
1526 21 61 45 69 66 72 192 4 137 -6 179 -53 221 -88 77 -228 36 -257 -75
l-12 -44 -1278 0 -1278 0 0 1760 0 1759 509 3 c497 3 510 4 537 24 53 39 69
71 69 134 0 63 -16 95 -69 134 -27 21 -39 21 -634 23 -489 2 -613 0 -637 -11z"/>
<path d="M1215 3666 c-97 -43 -124 -171 -54 -251 42 -47 84 -57 221 -53 126 3
147 11 192 72 29 39 29 133 0 172 -46 62 -65 69 -202 72 -91 1 -136 -2 -157
-12z"/>
<path d="M895 3026 c-67 -29 -105 -106 -91 -181 9 -47 59 -102 104 -116 24 -6
136 -9 314 -7 261 3 278 4 304 24 53 39 69 71 69 134 0 63 -16 95 -69 134 -26
20 -42 21 -314 23 -223 2 -294 0 -317 -11z"/>
<path d="M895 2386 c-67 -29 -105 -106 -91 -181 9 -47 59 -102 104 -116 24 -6
136 -9 314 -7 261 3 278 4 304 24 53 39 69 71 69 134 0 63 -16 95 -69 134 -26
20 -42 21 -314 23 -223 2 -294 0 -317 -11z"/>
<path d="M895 1746 c-67 -29 -105 -106 -91 -181 9 -47 59 -102 104 -116 24 -6
136 -9 314 -7 261 3 278 4 304 24 53 39 69 71 69 134 0 63 -16 95 -69 134 -26
20 -42 21 -314 23 -223 2 -294 0 -317 -11z"/>
<path d="M895 1106 c-67 -29 -105 -106 -91 -181 9 -47 59 -102 104 -116 24 -6
136 -9 314 -7 261 3 278 4 304 24 53 39 69 71 69 134 0 63 -16 95 -69 134 -26
20 -42 21 -314 23 -223 2 -294 0 -317 -11z"/>
</g>
</svg>
